<svg height="32" id="Icons" viewBox="0 0 32 32" width="32" xmlns="http://www.w3.org/2000/svg">
  <title>ic_portal_archive_data</title>
  <g>
    <path d="M2,5V28H19V5ZM17,7v9H4V7ZM4,26V17H17v9Z" fill="#fff"/>
    <path d="M13,8A2.5,2.5,0,0,1,8,8h5Z" fill="#fff"/>
    <path d="M13,18a2.5,2.5,0,0,1-5,0h5Z" fill="#fff"/>
    <rect fill="#fff" height="2" width="2" x="21" y="9"/>
    <rect fill="#fff" height="2" width="6" x="24" y="9"/>
    <rect fill="#fff" height="2" width="2" x="21" y="13"/>
    <rect fill="#fff" height="2" width="6" x="24" y="13"/>
    <rect fill="#fff" height="2" width="2" x="21" y="17"/>
    <rect fill="#fff" height="2" width="6" x="24" y="17"/>
    <rect fill="#fff" height="2" width="2" x="21" y="21"/>
    <rect fill="#fff" height="2" width="6" x="24" y="21"/>
  </g>
</svg>
