<svg data-name="Icons std" height="32" id="Icons_std" viewBox="0 0 32 32" width="32" xmlns="http://www.w3.org/2000/svg">
  <title>ic_check_all_Disabled</title>
  <path d="M13,2a1,1,0,0,1,1,1V13a1,1,0,0,1-1,1H3a1,1,0,0,1-1-1V3A1,1,0,0,1,3,2H13m0-1H3A2,2,0,0,0,1,3V13a2,2,0,0,0,2,2H13a2,2,0,0,0,2-2V3A2,2,0,0,0,13,1Z" fill="#fafafa"/>
  <polygon fill="#fafafa" points="6.5 12.4 2.8 8.7 4.2 7.3 6.5 9.6 11.8 4.3 13.2 5.7 6.5 12.4"/>
  <path d="M13,18a1,1,0,0,1,1,1V29a1,1,0,0,1-1,1H3a1,1,0,0,1-1-1V19a1,1,0,0,1,1-1H13m0-1H3a2,2,0,0,0-2,2V29a2,2,0,0,0,2,2H13a2,2,0,0,0,2-2V19A2,2,0,0,0,13,17Z" fill="#fafafa"/>
  <text style="isolation: isolate" fill="#fafafa" font-family="MyriadPro-Regular, Myriad Pro" font-size="26.72" transform="translate(15 23.32) scale(0.79 1)">}</text>
  <polygon fill="#fafafa" points="25.5 20.4 21.8 16.7 23.2 15.3 25.5 17.6 30.8 12.3 32.2 13.7 25.5 20.4"/>
</svg>
