<svg height="32" id="Icons" viewBox="0 0 32 32" width="32" xmlns="http://www.w3.org/2000/svg">
  <title>ic_portal_alarm_summary</title>
  <g data-name="alarming topten" id="alarming_topten">
    <path d="M27.5,4H4.5A1.5,1.5,0,0,0,3,5.5v14A1.5,1.5,0,0,0,4.5,21H13l-3,8,11-8h6.5A1.5,1.5,0,0,0,29,19.5V5.5A1.5,1.5,0,0,0,27.5,4ZM14,8H11.77c0,.11,0,.24.06.35A9.27,9.27,0,0,1,12,10a2.61,2.61,0,0,1-1.58,2.51A2.62,2.62,0,0,1,12,15a9.35,9.35,0,0,1-.16,1.6c0,.12,0,.27-.06.39H14v2H12a2.32,2.32,0,0,1-1.86-.65,2.38,2.38,0,0,1-.27-2.08A7.54,7.54,0,0,0,10,15c0-.46-.13-.54-.67-.8A1.91,1.91,0,0,1,8,12.5a1.88,1.88,0,0,1,1.34-1.69c.55-.26.66-.33.66-.81a7.46,7.46,0,0,0-.14-1.3,2.33,2.33,0,0,1,.27-2A2.35,2.35,0,0,1,12,6h2Zm8.67,6.2c-.54.26-.67.34-.67.8a7.54,7.54,0,0,0,.14,1.27,2.38,2.38,0,0,1-.27,2.08A2.32,2.32,0,0,1,20,19H18V17h2.22c0-.12,0-.27-.06-.39A9.35,9.35,0,0,1,20,15a2.62,2.62,0,0,1,1.58-2.49A2.61,2.61,0,0,1,20,10a9.27,9.27,0,0,1,.17-1.64c0-.11,0-.24.06-.35H18V6h2a2.35,2.35,0,0,1,1.88.65,2.33,2.33,0,0,1,.27,2A7.46,7.46,0,0,0,22,10c0,.48.12.56.66.81A1.88,1.88,0,0,1,24,12.5,1.91,1.91,0,0,1,22.67,14.2Z" fill="#fff"/>
  </g>
</svg>
