<svg height="32" id="Icons" viewBox="0 0 32 32" width="32" xmlns="http://www.w3.org/2000/svg">
  <title>ic_portal_alarm_log</title>
  <path d="M3,5.5v14A1.5,1.5,0,0,0,4.5,21H13l-3,8,11-8h6.53a1.5,1.5,0,0,0,1.5-1.5V5.5A1.5,1.5,0,0,0,27.53,4H4.5A1.5,1.5,0,0,0,3,5.5Zm8.48-.22A6.32,6.32,0,0,1,16,7.08a6.29,6.29,0,0,1,9.23.45l.15.23V19.38l-1.13-.75a7.52,7.52,0,0,0-3.75-.9,6.74,6.74,0,0,0-4,1.8l-.53.53-.53-.53a6.74,6.74,0,0,0-4-1.8,6.48,6.48,0,0,0-3.53.9l-1.2.75V7.75l.15-.23a6.23,6.23,0,0,1,4.58-2.25Zm0,1.5a4.48,4.48,0,0,0-3.23,1.5v8.55a8.81,8.81,0,0,1,3.23-.6A6.66,6.66,0,0,1,16,18a6.85,6.85,0,0,1,4.5-1.8,9.38,9.38,0,0,1,3.38.6V8.35a4.45,4.45,0,0,0-3.38-1.58,6.85,6.85,0,0,0-4,1.73L16,9l-.53-.53a6.85,6.85,0,0,0-4-1.73Z" data-name="alarming log" fill="#fff" fill-rule="evenodd" id="alarming_log"/>
</svg>
